Coordinates
version=1
nRows=16
nColumns=40
inDegrees=yes

Units are S.I. units (second, meters, Newtons, ...)
Angles are in degrees.

endheader
time	pelvis_tilt	pelvis_list	pelvis_rotation	pelvis_tx	pelvis_ty	pelvis_tz	hip_flexion_r	hip_adduction_r	hip_rotation_r	knee_angle_r	knee_angle_r_beta	ankle_angle_r	subtalar_angle_r	mtp_angle_r	hip_flexion_l	hip_adduction_l	hip_rotation_l	knee_angle_l	knee_angle_l_beta	ankle_angle_l	subtalar_angle_l	mtp_angle_l	lumbar_extension	lumbar_bending	lumbar_rotation	arm_flex_r	arm_add_r	arm_rot_r	elbow_flex_r	pro_sup_r	wrist_flex_r	wrist_dev_r	arm_flex_l	arm_add_l	arm_rot_l	elbow_flex_l	pro_sup_l	wrist_flex_l	wrist_dev_l
      0.84000000	     -8.25621328	      3.57388489	      3.90033123	      1.33049260	      0.90521411	      0.01756161	     15.14426714	    -17.51484032	    -12.74529954	    -83.69976084	     -1.46083641	      6.54938349	    -17.36070546	     15.66430941	     36.29213548	    -10.55106248	      1.10614159	    -46.25030756	     -0.80722015	      9.87075243	     17.75033650	     -1.66894278	      2.91843541	     -9.25403356	     -4.79868128	    -19.24455831	    -23.39883939	      3.78540452	     91.17775531	     89.95437384	      0.00000000	      0.00000000	     -8.83516490	     19.78430934	     -0.86578676	    130.07256745	     89.95437384	      0.00000000	      0.00000000
      0.85000000	     -7.89451138	      3.14222899	      4.39377388	      1.36703934	      0.90911852	      0.01660825	     18.82913931	    -16.19041681	    -11.31257497	    -84.71219999	     -1.47850681	      7.14848982	    -17.44568075	     15.19753166	     33.38876072	    -10.60770130	     -0.06674886	    -46.74638405	     -0.81587832	     11.63449052	     17.90876122	     -1.74527818	      2.26742556	     -8.77927229	     -6.56087063	    -20.35901389	    -23.06863460	      2.77305381	     88.25065196	     89.95437384	      0.00000000	      0.00000000	     -6.79042718	     18.31850575	     -1.39359296	    131.83549546	     89.95437384	      0.00000000	      0.00000000
      0.86000000	     -7.09246270	      2.69354435	      4.40661434	      1.40442385	      0.91419139	      0.01626415	     21.87882912	    -14.70770906	     -9.84879782	    -84.79882343	     -1.48001867	      8.05202164	    -17.70604723	     14.83421858	     29.58595080	    -10.10429212	     -0.53600640	    -46.59068120	     -0.81316079	     13.35277681	     17.99483566	     -1.74097022	      1.33782332	     -8.07911317	     -7.78090187	    -21.93935877	    -23.11450495	      1.59511466	     86.77452613	     89.95437384	      0.00000000	      0.00000000	     -4.78448750	     17.25693615	     -2.07430352	    133.51944508	     89.95437384	      0.00000000	      0.00000000
      0.87000000	     -5.17293822	      2.17098939	      4.22265648	      1.44270826	      0.92179151	      0.01638958	     23.21682810	    -12.87782190	     -8.51981371	    -83.61627546	     -1.45937931	      8.77224730	    -17.76238300	     14.79923927	     24.11631845	     -9.04570002	     -0.37564236	    -45.60568784	     -0.79596941	     14.50646575	     17.74760626	     -1.56325059	     -0.75337680	     -7.14937938	     -8.70382973	    -23.85050016	    -23.10332512	     -0.04504355	     86.46425636	     89.95437384	      0.00000000	      0.00000000	     -2.56759811	     16.82739723	     -3.02865305	    135.07055477	     89.95437384	      0.00000000	      0.00000000
      0.88000000	     -3.66763224	      1.86591043	      3.58067209	      1.48034473	      0.92893961	      0.01730614	     25.03251986	    -11.07675878	     -6.72049312	    -81.82079972	     -1.42804235	      9.14920239	    -17.84495297	     15.05593341	     19.06436276	     -7.97552995	      0.46467794	    -44.20766933	     -0.77156938	     14.58487442	     17.41916881	     -1.39027401	     -2.35743486	     -6.43982418	     -9.40543070	    -25.67525190	    -23.36352333	     -1.27395895	     86.94144556	     89.95437384	      0.00000000	      0.00000000	     -0.83293274	     16.89280157	     -3.51213077	    136.79597273	     89.95437384	      0.00000000	      0.00000000
      0.89000000	     -2.50858550	      1.14198219	      2.90681606	      1.51765001	      0.93550483	      0.01841538	     26.87866582	     -8.84673148	     -5.29725792	    -79.19981505	     -1.38229754	      9.41856203	    -17.89026015	     15.62499680	     14.79004596	     -6.31679741	      1.83603876	    -43.37127565	     -0.75697156	     13.90978292	     16.72370121	     -1.55224825	     -3.52020023	     -5.27609344	     -9.92104470	    -27.73091112	    -23.81782574	     -2.52034815	     88.07391408	     89.95437384	      0.00000000	      0.00000000	      0.76583858	     17.35139096	     -4.04560847	    138.32779793	     89.95437384	      0.00000000	      0.00000000
      0.90000000	     -1.84694200	      0.58161265	      2.04454996	      1.55532278	      0.94163483	      0.01976576	     28.85914814	     -6.67033695	     -3.61452556	    -75.78579903	     -1.32271172	      9.25369799	    -17.83299631	     15.80037551	     11.19821266	     -4.76841477	      3.74518091	    -42.64728601	     -0.74433556	     12.17108394	     15.88274426	     -1.45372002	     -4.00979246	     -4.34672216	    -10.21913790	    -29.86847507	    -24.31447549	     -3.74153973	     89.39796235	     89.95437384	      0.00000000	      0.00000000	      1.99036635	     18.16691160	     -4.55100410	    139.70024076	     89.95437384	      0.00000000	      0.00000000
      0.91000000	     -0.77857310	     -0.09052932	      1.23857907	      1.59365266	      0.94886687	      0.02139123	     29.72015423	     -4.54177290	     -2.44848532	    -71.24814307	     -1.24351468	      8.70089920	    -17.85450659	     16.35626709	      7.17028475	     -2.91870925	      6.04863064	    -41.80255652	     -0.72959225	      9.81037321	     13.80770655	     -1.65209535	     -4.92621846	     -3.33816195	    -10.61813371	    -31.79263340	    -24.80809100	     -4.82263037	     90.69288331	     89.95437384	      0.00000000	      0.00000000	      2.88939601	     19.31202669	     -4.90931927	    140.96851390	     89.95437384	      0.00000000	      0.00000000
      0.92000000	     -0.46742532	     -0.21956037	      0.29368552	      1.63138425	      0.95460193	      0.02289031	     31.24812106	     -3.09435930	     -1.06184760	    -66.29922755	     -1.15713981	      7.52793492	    -17.47190728	     16.53751187	      4.35994580	     -1.84535322	      8.30387441	    -41.28363435	     -0.72053535	      6.11035571	     12.57182606	     -1.07492268	     -4.97333367	     -3.02036057	    -10.87491998	    -33.63801556	    -25.29263018	     -5.80219849	     91.91811952	     89.95437384	      0.00000000	      0.00000000	      3.58638529	     20.81582897	     -5.29311732	    141.97750360	     89.95437384	      0.00000000	      0.00000000
      0.93000000	      0.21456631	     -0.71444243	     -0.43900948	      1.67047351	      0.96079268	      0.02455952	     31.55188945	     -1.50660550	     -0.32754080	    -60.28296384	     -1.05213620	      5.95865704	    -17.44390360	     17.08745325	      1.20625309	     -0.27070225	     10.41867440	    -40.76321984	     -0.71145240	      2.02104625	     10.13873938	     -0.51276155	     -5.27839087	     -2.34421827	    -11.13590016	    -35.59850430	    -25.72412147	     -6.93786843	     93.09147480	     89.95437384	      0.00000000	      0.00000000	      4.01473437	     22.48985595	     -5.87498332	    142.71531795	     89.95437384	      0.00000000	      0.00000000
      0.94000000	      0.41394955	     -0.82624195	     -0.86944441	      1.70954336	      0.96542473	      0.02545269	     32.08226796	     -0.71106361	     -0.01016768	    -53.91166492	     -0.94093606	      3.96959034	    -16.94411803	     17.73431660	     -1.05472787	      0.61903454	     11.72050593	    -40.37080516	     -0.70460347	     -2.99280142	      8.77021793	      0.54549386	     -5.01461794	     -2.07513257	    -11.53655591	    -37.60042205	    -26.08154179	     -8.09859347	     94.16400694	     89.95437384	      0.00000000	      0.00000000	      4.30244644	     24.27212427	     -6.55943876	    143.19085250	     89.95437384	      0.00000000	      0.00000000
      0.95000000	      0.62748747	     -0.84073279	     -0.83324518	      1.74924262	      0.96915745	      0.02564114	     32.14112693	     -0.50729715	     -0.51688435	    -47.08397154	     -0.82177033	      1.39893872	    -16.00331414	     18.63866644	     -3.24958197	      1.12878761	     11.86277047	    -39.77957569	     -0.69428457	     -7.07518959	      8.05713896	      1.69659362	     -4.68675071	     -1.91050038	    -12.14099707	    -39.64476950	    -26.17495725	     -9.48115169	     95.08133470	     89.95437384	      0.00000000	      0.00000000	      4.52368243	     26.20391865	     -7.42654599	    143.40085379	     89.95437384	      0.00000000	      0.00000000
      0.96000000	      0.66236975	     -0.57866916	     -0.41723943	      1.78901678	      0.97151560	      0.02475818	     32.05195682	     -1.05246373	     -1.78083567	    -40.12751075	     -0.70035718	     -1.29687776	    -14.23009055	     19.40984302	     -4.96498333	      1.14786202	     11.38134514	    -39.56036816	     -0.69045868	     -7.14629731	      8.59286135	      1.97000372	     -4.13142032	     -1.99534167	    -12.90820723	    -41.62992404	    -26.08671909	    -10.96052546	     95.87535129	     89.95437384	      0.00000000	      0.00000000	      4.67588016	     28.13574135	     -8.51471021	    143.38257406	     89.95437384	      0.00000000	      0.00000000
      0.97000000	      0.59963361	     -0.52640337	      0.17500285	      1.82870959	      0.97275394	      0.02357021	     31.68373888	     -1.47791948	     -3.61816233	    -33.19866884	     -0.57942608	     -3.13263400	    -12.00219222	     20.00926052	     -6.27069614	      1.43842628	     11.26380796	    -39.78659935	     -0.69440716	     -5.83165827	     10.92073648	      2.21996259	     -3.44787385	     -1.84706742	    -13.60779595	    -43.44274547	    -25.89524796	    -12.50461602	     96.50643647	     89.95437384	      0.00000000	      0.00000000	      4.81241875	     29.94283098	     -9.75810478	    143.08647382	     89.95437384	      0.00000000	      0.00000000
      0.98000000	      0.45942388	     -0.44928918	      0.90541561	      1.86811583	      0.97285994	      0.02227973	     31.11335876	     -1.85961055	     -5.38370253	    -26.68328858	     -0.46571124	     -3.69383959	     -9.78122385	     20.23574514	     -7.04186122	      1.80972821	     11.27697320	    -40.44122719	     -0.70583257	     -4.99585965	     14.13458047	      2.69449666	     -2.67662271	     -1.77560893	    -14.21495212	    -44.97917547	    -25.71200901	    -13.81599693	     96.93487910	     89.95437384	      0.00000000	      0.00000000	      4.98017086	     31.61795985	    -11.11081917	    142.56266272	     89.95437384	      0.00000000	      0.00000000
      0.99000000	      0.50990506	     -0.22228572	      1.72165194	      1.90714476	      0.97230606	      0.02049929	     30.38990898	     -2.44284496	     -7.24259590	    -21.27336186	     -0.37129021	     -4.31015521	     -7.67479857	     20.38038578	     -7.68105898	      2.00156603	     11.15599669	    -41.41001451	     -0.72274110	     -3.91120751	     16.97467426	      3.46614434	     -2.14005852	     -1.87815080	    -14.55926771	    -46.22859202	    -25.07901884	    -15.39107934	     97.18943613	     89.95437384	      0.00000000	      0.00000000	      5.43564321	     33.16189955	    -12.83642040	    141.64900070	     89.95437384	      0.00000000	      0.00000000
